<svg xmlns="http://www.w3.org/2000/svg" viewBox="0 0 256 256">
<polygon points="110,60 110,89 109,90 86,90 96,100 97,100 116,119 115,120 40,120 40,170 72,170 73,171 72,172 71,172 70,173 69,173 63,179 63,180 62,181 62,182 61,183 61,185 60,186 60,194 61,195 61,197 62,198 62,199 63,200 63,201 69,207 70,207 71,208 72,208 73,209 75,209 76,210 84,210 85,209 87,209 88,208 89,208 90,207 91,207 97,201 97,200 98,199 98,198 99,197 99,195 100,194 100,186 99,185 99,183 98,182 98,181 97,180 97,179 91,173 90,173 89,172 88,172 87,171 88,170 168,170 169,171 168,172 167,172 166,173 165,173 159,179 159,180 158,181 158,182 157,183 157,185 156,186 156,194 157,195 157,197 158,198 158,199 159,200 159,201 165,207 166,207 167,208 168,208 169,209 171,209 172,210 180,210 181,209 183,209 184,208 185,208 186,207 187,207 193,201 193,200 194,199 194,198 195,197 195,195 196,194 196,186 195,185 195,183 194,182 194,181 193,180 193,179 187,173 186,173 185,172 184,172 183,171 184,170 216,170 216,120 141,120 140,119 159,100 160,100 170,90 147,90 146,89 146,60" fill="none" stroke="gold" stroke-width="2"/>
</svg>