<svg xmlns="http://www.w3.org/2000/svg" viewBox="0 0 256 256">
<polygon points="61,31 61,34 62,34 65,37 65,38 66,39 66,44 68,44 69,43 69,37 68,36 68,35 67,34 67,33 66,33 65,32 64,32 63,31" fill="none" stroke="gold" stroke-width="2"/>
<polygon points="37,31 33,35 33,38 32,39 32,43 33,44 35,44 35,39 36,38 36,37 39,34 52,34 55,37 55,38 56,39 56,44 58,44 59,43 59,39 58,38 58,35 54,31" fill="none" stroke="gold" stroke-width="2"/>
<polygon points="56,11 56,14 57,14 60,17 60,18 61,19 60,20 60,22 58,24 56,24 56,27 59,27 60,26 61,26 63,24 63,22 64,21 64,17 63,16 63,15 62,14 62,13 61,13 60,12 59,12 58,11" fill="none" stroke="gold" stroke-width="2"/>
<polygon points="43,11 42,12 41,12 38,15 38,17 37,18 37,21 38,22 38,23 39,24 39,25 40,25 42,27 49,27 51,25 52,25 52,24 53,23 53,22 54,21 54,18 53,17 53,15 50,12 49,12 48,11" fill="none" stroke="gold" stroke-width="2"/>
<polygon points="0,0 0,63" fill="none" stroke="gold" stroke-width="2"/>
</svg>